<?xml version="1.0" encoding="UTF-8" standalone="no"?>
<!-- Created with Inkscape (http://www.inkscape.org/) -->

<svg
   version="1.1"
   id="svg2"
   width="277.33334"
   height="213.33333"
   viewBox="0 0 277.33334 213.33333"
   sodipodi:docname="kde1.svg"
   inkscape:version="1.1.2 (0a00cf5339, 2022-02-04, custom)"
   xmlns:inkscape="http://www.inkscape.org/namespaces/inkscape"
   xmlns:sodipodi="http://sodipodi.sourceforge.net/DTD/sodipodi-0.dtd"
   xmlns="http://www.w3.org/2000/svg"
   xmlns:svg="http://www.w3.org/2000/svg">
  <defs
     id="defs6" />
  <sodipodi:namedview
     id="namedview4"
     pagecolor="#ffffff"
     bordercolor="#666666"
     borderopacity="1.0"
     inkscape:pageshadow="2"
     inkscape:pageopacity="0.0"
     inkscape:pagecheckerboard="0"
     showgrid="false"
     inkscape:zoom="2.9437501"
     inkscape:cx="138.59872"
     inkscape:cy="106.49681"
     inkscape:window-width="1440"
     inkscape:window-height="871"
     inkscape:window-x="1366"
     inkscape:window-y="0"
     inkscape:window-maximized="1"
     inkscape:current-layer="g8" />
  <g
     inkscape:groupmode="layer"
     inkscape:label="Image"
     id="g8">
    <g
       id="g48"
       transform="translate(0.20949121,-1.5895471)">
      <path
         style="fill:#a297f1;stroke-width:1.06667"
         d="m 24.800001,208.31388 c -1.32,-0.25425 -2.4,-1.10855 -2.4,-1.89847 0,-0.78991 3.407563,-6.80496 7.572363,-13.36677 4.164802,-6.56183 7.164802,-12.33296 6.666667,-12.82476 -0.498133,-0.4918 -6.768388,-1.89179 -13.933901,-3.11108 C 7.7763202,174.57249 6.4000002,174.16037 6.4000002,172.23048 6.4000002,169.0034 118.76851,45.579462 147.01221,17.784075 158.11572,6.8568071 160.10771,5.3159149 161.89433,6.2720894 c 1.13451,0.6071659 10.2124,9.2250476 20.17313,19.1508466 45.46753,45.308144 75.43082,85.546074 86.31299,115.910394 2.65846,7.41781 3.06008,10.06717 3.07224,20.26667 0.0131,11.02974 -0.17605,12.07645 -3.15519,17.45517 -4.92783,8.89704 -14.96182,15.89861 -28.34305,19.77734 -12.47506,3.61606 -47.23438,7.05982 -92.22111,9.13675 -22.47364,1.03755 -117.946162,1.30519 -122.933339,0.34462 z"
         id="path62" />
      <path
         style="fill:#f7969b;stroke-width:1.06667"
         d="m 27.542392,206.00713 -2.857608,-0.6738 7.390942,-11.64183 c 4.065017,-6.40301 7.390942,-12.18016 7.390942,-12.83811 0,-0.65794 -0.84,-1.23125 -1.866667,-1.27401 -2.793007,-0.11636 -27.6719272,-4.58711 -29.5615377,-5.31223 -0.9011546,-0.3458 -1.6384631,-1.26435 -1.6384631,-2.04121 0,-4.17681 146.9975198,-164.0778364 150.2819198,-163.473737 0.35828,0.065899 1.52701,-0.2614006 2.59717,-0.7273307 2.35968,-1.0273581 3.95502,0.4621363 32.08285,29.9542557 40.8559,42.83755 65.48947,77.053962 74.87448,104.001812 3.66571,10.52557 4.58843,24.18376 2.13322,31.57573 -4.10812,12.36836 -17.06136,21.28016 -36.2157,24.91631 -14.45032,2.74317 -48.08706,5.56654 -88.15394,7.39939 -24.80868,1.13488 -111.789206,1.23552 -116.457608,0.13476 z"
         id="path60" />
      <path
         style="fill:#fb7b7d;stroke-width:1.06667"
         d="M 27.449093,206.00713 24.498185,205.33333 28.057485,200 C 41.225692,180.26847 41.778159,177.81271 33.306294,176.66867 19.029336,174.7407 9.5028124,172.50269 9.8117396,171.1492 10.335277,168.85546 65.660867,107.25111 108.69174,61.04755 121.95129,46.810369 138.03179,29.53037 144.4262,22.647551 150.8206,15.76473 157.17353,9.4264499 158.54381,8.5624814 c 2.3632,-1.4900141 2.74545,-1.3253385 7.42791,3.1999996 13.9924,13.522903 47.33494,49.486801 58.16293,62.735645 21.30092,26.063234 35.733,49.195704 42.10177,67.482814 3.66571,10.52557 4.58843,24.18376 2.13322,31.57573 -4.10812,12.36836 -17.06136,21.28016 -36.2157,24.91631 -14.45032,2.74317 -48.08706,5.56654 -88.15394,7.39939 -24.80937,1.13491 -111.730599,1.2354 -116.550907,0.13476 z"
         id="path58" />
      <path
         style="fill:#7d75f4;stroke-width:1.06667"
         d="m 27.542392,206.00713 -2.857608,-0.6738 7.442282,-11.72284 c 5.15982,-8.12757 7.270696,-12.40649 6.882795,-13.95201 C 38.431277,177.35321 49.192879,160.64776 86.718124,105.6 134.84537,34.999599 150.97661,13.188312 158.48538,8.5624814 c 2.42704,-1.4951965 2.78759,-1.3410778 7.48634,3.1999996 13.9924,13.522903 47.33494,49.486801 58.16293,62.735645 21.30092,26.063234 35.733,49.195704 42.10177,67.482814 3.66571,10.52557 4.58843,24.18376 2.13322,31.57573 -4.10812,12.36836 -17.06136,21.28016 -36.2157,24.91631 -14.45032,2.74317 -48.08706,5.56654 -88.15394,7.39939 -24.80868,1.13488 -111.789206,1.23552 -116.457608,0.13476 z"
         id="path56" />
      <path
         style="fill:#e3728b;stroke-width:1.06667"
         d="m 150.4,189.16196 c -2.64,-0.1826 -12.48,-0.82063 -21.86666,-1.41783 -40.12739,-2.55303 -88.579129,-6.85666 -89.322135,-7.93387 -0.433837,-0.62898 -0.561401,-1.76314 -0.283477,-2.52036 1.135741,-3.09438 49.801644,-75.07603 83.849942,-124.022289 18.31215,-26.324689 30.36772,-41.415506 35.71901,-44.7119817 2.47925,-1.5272645 2.82006,-1.3226561 10.66021,6.4000007 19.77007,19.473803 52.83326,68.944727 64.85823,97.04437 7.26092,16.96711 9.50069,26.89775 8.9994,39.90109 -0.36491,9.46585 -0.79358,11.45637 -3.5506,16.48741 -5.53845,10.1066 -16.54087,16.95431 -31.99051,19.91031 -7.5392,1.44249 -41.31266,1.95326 -57.07341,0.86315 z"
         id="path54" />
      <path
         style="fill:#8269e3;stroke-width:1.06667"
         d="m 150.4,189.16196 c -2.64,-0.1826 -12.48,-0.82063 -21.86666,-1.41783 -23.93657,-1.52292 -88.442061,-6.68117 -88.976508,-7.1151 C 38.845286,180.05131 102.03091,86.750611 131.54373,44.799999 149.30092,19.55926 157.66788,8.5426632 159.66177,7.7775315 c 2.44942,-0.9399286 16.1582,13.2494475 28.03947,29.0224675 28.50543,37.842461 47.19058,71.201571 53.41756,95.367751 1.83824,7.13401 2.22588,11.16914 1.89572,19.73334 -0.36491,9.46585 -0.79358,11.45637 -3.5506,16.48741 -5.53845,10.1066 -16.54087,16.95431 -31.99051,19.91031 -7.5392,1.44249 -41.31266,1.95326 -57.07341,0.86315 z"
         id="path52" />
      <path
         style="fill:#7c3cbb;stroke-width:1.06667"
         d="M 164.26667,188.05253 C 142.74698,186.96629 100.41009,184.0344 74.186053,181.81431 57.201713,180.37643 42.921713,179.2 42.452719,179.2 c -2.210371,0 0.0025,-4.11324 10.666377,-19.82654 C 99.188163,91.490405 112.35421,72.24158 127.8385,50.133333 151.38776,16.510045 157.54182,8.5333332 159.93305,8.5333332 c 5.27265,0 38.05919,42.5909538 56.40189,73.2681868 36.816,61.57289 33.69642,96.39179 -9.4016,104.93489 -5.71672,1.1332 -30.90057,1.91003 -42.66667,1.31612 z"
         id="path50" />
    </g>
  </g>
</svg>
